<svg version="1.1" id="Gobo2" x="0px" y="0px" width="150.84px" height="165.143px" viewBox="0 0 150.84 165.143" enable-background="new 0 0 150.84 165.143" xml:space="preserve" xmlns="http://www.w3.org/2000/svg" xmlns:xlink="http://www.w3.org/1999/xlink">
  <g>
    <path id="R_Leg" fill="#FFC93E" stroke="#603813" stroke-width="2" d="M75.198,146.331c0-2.057,0.577-5.012,3.769-5.679&#xD;&#xA;&#x9;c4.605-0.966,9.874,3.697,11.307,5.069c-0.106,0.546,1.686,11.562,1.686,12.516c0,3.23-0.863,3.358-1.198,3.411&#xD;&#xA;&#x9;c-3.153,0.459-11.556-8.377-15.413-13.518C75.296,147.851,75.198,147.23,75.198,146.331z"/>
    <path id="Center_Leg" fill="#FFC93E" stroke="#603813" stroke-width="2" d="M62.43,161.767c-2.286-2.48-2.612-9.201-2.612-12.06&#xD;&#xA;&#x9;c0-1.213,0.062-2.02,0.065-2.045l0.004-0.062c0,0-0.007-0.259-0.007-0.354c0-5.385,4.957-7.253,5.797-7.534&#xD;&#xA;&#x9;c2.87,0.035,7.831,1.393,9.015,3.441c0.12,0.207,0.232,0.467,0.232,0.8c0,0.292-0.087,0.646-0.335,1.073&#xD;&#xA;&#x9;c-0.115,0.196-2.153,5.012-3.877,8.705l-1.232,3.415c-0.922,2.984-2.373,5.97-3.952,5.97&#xD;&#xA;&#x9;C64.28,163.118,63.267,162.676,62.43,161.767z"/>
    <path id="R_Arm" fill="#FFC93E" stroke="#603813" stroke-width="2" d="M127.081,122.735l-2.229-3.933&#xD;&#xA;&#x9;c-2.441-4.251-5.261-8.143-7.748-11.569c-3.197-4.413-5.979-8.979-6.9-12.205c-0.332-1.162-0.172-2.271,0.306-2.884&#xD;&#xA;&#x9;c0.046-0.165,0.528-0.428,0.868-0.498c4.096-0.885,21.051,8.849,25.281,14.051c6.197,7.621,8.675,18.31,7.293,23.694&#xD;&#xA;&#x9;c-0.567,2.2-1.835,3.759-3.672,4.501C135.588,135.788,132.501,132.366,127.081,122.735z"/>
    <path id="Body" fill="#FFC93E" stroke="#603813" stroke-width="2" stroke-linecap="round" stroke-linejoin="round" d="&#xD;&#xA;&#x9;M60.339,47.617c6.019-3.271-0.193-15.588-6.203-27.501c-3.285-6.514-9.143-17.516-7.239-18.547&#xD;&#xA;&#x9;c3.683-1.996,21.278,18.768,28.411,27.137l7.271,8.281c0,0,5.198,6.378,9.176,10.583c0.07,0.074,3.831-0.51,6.429-2.669&#xD;&#xA;&#x9;c2.118-1.767,1.838-3.744,2.512-7.902c0.619-3.82,1.291-10.733,3.341-10.768c3.088-0.047,5.118,12.681,5.909,17.396l0.437,2.522&#xD;&#xA;&#x9;c1.037,5.608,6.447,22.469,6.679,23.184c0.074,0.174,0.196,0.4,0.196,0.4l0.045,0.091l0.062,0.076&#xD;&#xA;&#x9;c8.354,10.361,14.568,22.924,14.568,34.694c0,24.924-21.848,42.469-51.092,42.469c-5.424,0-10.729-0.76-15.768-2.254l-0.271-0.078&#xD;&#xA;&#x9;c0,0-7.91-0.665-18.029,12.636c-2.03,2.67-1.849,5.159-4.71,4.393c-0.954-0.255-1.655-0.956-2.227-2.229&#xD;&#xA;&#x9;c-1.368-3.036-0.358-10.229,1.314-14.825l0.263-0.722l-0.604-0.478c-0.148-0.118-16.56-12.077-18.218-29.214&#xD;&#xA;&#x9;c-1.445-14.938,6.101-23.443,9.232-28.117l1.799-2.996c2.271-5.526-2.003-13.209-5.775-19.989&#xD;&#xA;&#x9;c-2.252-4.048-5.887-9.955-5.066-11.343c0.911-1.538,4.167,0.098,7.455,1.667c2.666,1.274,5.231,3.074,7.012,1.887&#xD;&#xA;&#x9;c1.852-1.233,0.637-4.331-1.046-8.617c-1.583-4.026-4.58-10.386-3.429-13.011c0.317-0.722,0.873-1.229,1.7-1.55&#xD;&#xA;&#x9;c3.058-1.184,7.43,3.967,10.969,7.996C49.758,45.138,54.654,50.712,60.339,47.617z"/>
    <g id="L_Eye">
      <path id="White_1_" fill="#FFFFFF" d="M65.386,106.419c0,4.495,3.647,8.14,8.144,8.14c4.498,0,8.143-3.645,8.143-8.14&#xD;&#xA;&#x9;&#x9;c0-4.498-3.646-8.148-8.143-8.148C69.032,98.273,65.386,101.921,65.386,106.419z"/>
      <circle id="Pupil_1_" fill="#603813" cx="74.627" cy="106.198" r="5.731"/>
    </g>
    <g id="R_Eye">
      <path id="White" fill="#FFFFFF" d="M104.618,106.419c0,4.495,3.646,8.14,8.146,8.14c4.495,0,8.143-3.645,8.143-8.14&#xD;&#xA;&#x9;&#x9;c0-4.498-3.646-8.148-8.143-8.148C108.264,98.273,104.618,101.921,104.618,106.419z"/>
      <path id="Pupil" fill="#603813" d="M108.127,106.198c0,3.164,2.564,5.729,5.73,5.729c3.164,0,5.731-2.562,5.731-5.729&#xD;&#xA;&#x9;&#x9;c0-3.163-2.567-5.731-5.731-5.731C110.691,100.467,108.127,103.034,108.127,106.198z"/>
    </g>
    <path id="L_Arm" fill="#FFC93E" stroke="#603813" stroke-width="2" d="M9.154,137.858c-1.669-1.066-2.631-2.826-2.786-5.096&#xD;&#xA;&#x9;c-0.377-5.551,4.016-15.604,11.499-21.962c5.11-4.342,23.56-10.81,27.424-9.193c0.319,0.134,0.747,0.478,0.76,0.652&#xD;&#xA;&#x9;c0.361,0.687,0.313,1.805-0.226,2.887c-1.494,3.004-5.064,6.987-9.016,10.736c-3.072,2.924-6.553,6.226-9.728,9.963l-2.912,3.45&#xD;&#xA;&#x9;C17.082,137.777,13.417,140.583,9.154,137.858z"/>
    <path id="Mouth" fill="#603813" d="M89.77,126.383l-0.006,0.955c-0.006,0.258,0.096,3.229,2.887,6.044&#xD;&#xA;&#x9;c0.949,0.96,2.104,1.44,3.432,1.44c6.096,0,7.339-7.465,7.395-7.918l0.144-1.188L89.77,126.383z"/>
  </g>
</svg>